Svt[info]: -------------------------------------------
Svt[info]: SVT [version]:	SVT-AV1 Encoder Lib v2.0.0-12-g5d5a9323
Svt[info]: SVT [build]  :	GCC 13.2.0	 64 bit
Svt[info]: LIB Build date: Apr 21 2024 13:55:12
Svt[info]: -------------------------------------------
Svt[warn]: Film grain denoise apply signal is going to be ignored when film grain is off.
Svt[info]: Number of logical cores available: 32
Svt[info]: Number of PPCS 173
Svt[info]: [asm level on system : up to avx512]
Svt[info]: [asm level selected : up to avx512]
Svt[info]: -------------------------------------------
Svt[info]: SVT [config]: main profile	tier (auto)	level (auto)
Svt[info]: SVT [config]: width / height / fps numerator / fps denominator 		: 1920 / 1080 / 24000 / 1001
Svt[info]: SVT [config]: bit-depth / color format 					: 10 / YUV420
Svt[info]: SVT [config]: preset / tune / pred struct 					: 6 / VQ / random access
Svt[info]: SVT [config]: gop size / mini-gop size / key-frame type 			: 161 / 32 / key frame
Svt[info]: SVT [config]: BRC mode / rate factor 					: CRF / 18 
Svt[info]: SVT [config]: AQ mode / variance boost 					: 2 / 0
Svt[info]: -------------------------------------------
frame=    0 fps=0.0 q=0.0 size=       3KiB time=N/A bitrate=N/A speed=N/A    frame=    0 fps=0.0 q=0.0 size=       3KiB time=N/A bitrate=N/A speed=N/A    frame=   21 fps= 13 q=19.0 size=       3KiB time=00:00:00.83 bitrate=  26.0kbits/s speed=0.536x    frame=   32 fps= 16 q=21.0 size=       3KiB time=00:00:01.29 bitrate=  16.8kbits/s speed=0.627x    frame=   48 fps= 19 q=18.0 size=       3KiB time=00:00:01.96 bitrate=  11.1kbits/s speed=0.76x    frame=   64 fps= 21 q=18.0 size=       3KiB time=00:00:02.62 bitrate=   8.2kbits/s speed=0.847x    frame=   77 fps= 21 q=15.0 size=       3KiB time=00:00:03.16 bitrate=   6.8kbits/s speed=0.879x    frame=   96 fps= 23 q=18.0 size=       3KiB time=00:00:03.96 bitrate=   5.5kbits/s speed=0.959x    frame=  105 fps= 23 q=12.0 size=       3KiB time=00:00:04.33 bitrate=   5.0kbits/s speed=0.935x    frame=  114 fps= 22 q=18.0 size=       3KiB time=00:00:04.71 bitrate=   4.6kbits/s speed=0.913x    frame=  130 fps= 23 q=18.0 size=    2560KiB time=00:00:05.38 bitrate=3897.8kbits/s speed=0.949x    frame=  139 fps= 22 q=17.0 size=    2560KiB time=00:00:05.75 bitrate=3643.6kbits/s speed=0.93x    frame=  153 fps= 23 q=11.0 size=    2560KiB time=00:00:06.33 bitrate=3308.0kbits/s speed=0.946x    frame=  158 fps= 22 q=18.0 size=    2560KiB time=00:00:06.54 bitrate=3202.6kbits/s speed=0.906x    frame=  178 fps= 23 q=11.0 size=    3584KiB time=00:00:07.38 bitrate=3977.1kbits/s speed=0.954x    frame=  189 fps= 23 q=18.0 size=    3584KiB time=00:00:07.84 bitrate=3744.4kbits/s speed=0.951x    frame=  200 fps= 23 q=17.0 size=    3584KiB time=00:00:08.29 bitrate=3537.4kbits/s speed=0.946x    frame=  211 fps= 23 q=18.0 size=    3584KiB time=00:00:08.75 bitrate=3352.1kbits/s speed=0.943x    frame=  219 fps= 22 q=18.0 size=    3584KiB time=00:00:09.09 bitrate=3229.1kbits/s speed=0.928x    frame=  234 fps= 23 q=11.0 size=    3584KiB time=00:00:09.71 bitrate=3021.2kbits/s speed=0.941x    frame=  256 fps= 24 q=17.0 size=    3584KiB time=00:00:10.63 bitrate=2760.5kbits/s speed=0.982x    frame=  284 fps= 25 q=17.0 size=    6912KiB time=00:00:11.80 bitrate=4797.2kbits/s speed=1.04x    frame=  311 fps= 26 q=18.0 size=    6912KiB time=00:00:12.92 bitrate=4379.3kbits/s speed=1.09x    frame=  332 fps= 27 q=18.0 size=    7936KiB time=00:00:13.80 bitrate=4709.1kbits/s speed=1.12x    frame=  352 fps= 27 q=18.0 size=    7936KiB time=00:00:14.63 bitrate=4440.8kbits/s speed=1.13x    frame=  372 fps= 28 q=18.0 size=    7936KiB time=00:00:15.47 bitrate=4201.4kbits/s speed=1.15x    frame=  388 fps= 28 q=18.0 size=    7936KiB time=00:00:16.14 bitrate=4027.7kbits/s speed=1.16x    frame=  411 fps= 28 q=12.0 size=    9728KiB time=00:00:17.10 bitrate=4660.2kbits/s speed=1.18x    frame=  455 fps= 30 q=17.0 size=    9728KiB time=00:00:18.93 bitrate=4208.6kbits/s speed=1.27x    frame=  467 fps= 30 q=14.0 size=    9728KiB time=00:00:19.43 bitrate=4100.2kbits/s speed=1.26x    frame=  506 fps= 32 q=17.0 size=   11776KiB time=00:00:21.06 bitrate=4580.1kbits/s speed=1.32x    frame=  529 fps= 32 q=18.0 size=   11776KiB time=00:00:22.02 bitrate=4380.6kbits/s speed=1.33x    frame=  545 fps= 32 q=18.0 size=   11776KiB time=00:00:22.68 bitrate=4251.7kbits/s speed=1.33x    frame=  568 fps= 32 q=14.0 size=   11776KiB time=00:00:23.64 bitrate=4079.3kbits/s speed=1.35x    frame=  593 fps= 33 q=18.0 size=   11776KiB time=00:00:24.69 bitrate=3907.0kbits/s speed=1.37x    frame=  626 fps= 34 q=17.0 size=   15616KiB time=00:00:26.06 bitrate=4907.5kbits/s speed= 1.4x    frame=  649 fps= 34 q=16.0 size=   16384KiB time=00:00:27.02 bitrate=4966.1kbits/s speed=1.42x    frame=  671 fps= 34 q=17.0 size=   16384KiB time=00:00:27.94 bitrate=4803.0kbits/s speed=1.43x    frame=  687 fps= 34 q=17.0 size=   16384KiB time=00:00:28.61 bitrate=4691.0kbits/s speed=1.42x    frame=  700 fps= 34 q=18.0 size=   16384KiB time=00:00:29.15 bitrate=4603.7kbits/s speed=1.41x    frame=  712 fps= 34 q=18.0 size=   16384KiB time=00:00:29.65 bitrate=4526.0kbits/s speed= 1.4x    frame=  730 fps= 34 q=18.0 size=   16384KiB time=00:00:30.40 bitrate=4414.3kbits/s speed= 1.4x    frame=  751 fps= 34 q=16.0 size=   17920KiB time=00:00:31.28 bitrate=4692.9kbits/s speed=1.41x    frame=  771 fps= 34 q=16.0 size=   17920KiB time=00:00:32.11 bitrate=4571.0kbits/s speed=1.41x    frame=  791 fps= 34 q=17.0 size=   17920KiB time=00:00:32.94 bitrate=4455.3kbits/s speed=1.42x    frame=  803 fps= 34 q=15.0 size=   17920KiB time=00:00:33.45 bitrate=4388.6kbits/s speed=1.41x    frame=  816 fps= 34 q=17.0 size=   21248KiB time=00:00:33.99 bitrate=5120.7kbits/s speed= 1.4x    frame=  826 fps= 33 q=14.0 size=   21248KiB time=00:00:34.40 bitrate=5058.6kbits/s speed=1.39x    frame=  837 fps= 33 q=18.0 size=   21248KiB time=00:00:34.86 bitrate=4992.0kbits/s speed=1.38x    frame=  852 fps= 33 q=16.0 size=   21248KiB time=00:00:35.49 bitrate=4904.1kbits/s speed=1.38x    frame=  865 fps= 33 q=18.0 size=   21248KiB time=00:00:36.03 bitrate=4830.3kbits/s speed=1.37x    frame=  882 fps= 33 q=15.0 size=   21248KiB time=00:00:36.74 bitrate=4737.1kbits/s speed=1.37x    frame=  918 fps= 34 q=9.0 size=   26368KiB time=00:00:38.24 bitrate=5647.7kbits/s speed= 1.4x    frame=  937 fps= 34 q=18.0 size=   26368KiB time=00:00:39.03 bitrate=5533.1kbits/s speed= 1.4x    frame=  965 fps= 34 q=18.0 size=   26368KiB time=00:00:40.20 bitrate=5372.4kbits/s speed=1.42x    frame=  984 fps= 34 q=18.0 size=   27904KiB time=00:00:40.99 bitrate=5575.5kbits/s speed=1.42x    frame=  996 fps= 34 q=18.0 size=   27904KiB time=00:00:41.49 bitrate=5508.2kbits/s speed=1.41x    frame= 1024 fps= 34 q=19.0 size=   27904KiB time=00:00:42.66 bitrate=5357.4kbits/s speed=1.43x    frame= 1053 fps= 35 q=16.0 size=   27904KiB time=00:00:43.87 bitrate=5209.8kbits/s speed=1.44x    frame= 1077 fps= 35 q=17.0 size=   30720KiB time=00:00:44.87 bitrate=5607.6kbits/s speed=1.45x    